<?xml version="1.0" encoding="UTF-8"?> <!-- Generator: Adobe Illustrator 21.1.0, SVG Export Plug-In --> <svg xmlns="http://www.w3.org/2000/svg" xmlns:xlink="http://www.w3.org/1999/xlink" xmlns:a="http://ns.adobe.com/AdobeSVGViewerExtensions/3.0/" x="0px" y="0px" width="180.5px" height="222.9px" viewBox="0 0 180.5 222.9" style="enable-background:new 0 0 180.5 222.9;" xml:space="preserve"> <style type="text/css"> .st0{fill:url(#SVGID_1_);} .st1{fill:none;stroke:#000000;stroke-width:0.4944;stroke-miterlimit:10;} .st2{fill:url(#SVGID_2_);} .st3{opacity:0.3;fill:#FFFFFF;} .st4{opacity:0.8;fill:url(#XMLID_95_);} .st5{fill:url(#SVGID_3_);} .st6{fill:url(#SVGID_4_);} .st7{opacity:0.8;fill:url(#XMLID_96_);} </style> <defs> </defs> <g id="XMLID_1_"> <g id="XMLID_2_"> <g id="XMLID_93_"> <g id="XMLID_94_"> <linearGradient id="SVGID_1_" gradientUnits="userSpaceOnUse" x1="25.5682" y1="15.2127" x2="165.4119" y2="155.0564" gradientTransform="matrix(1 1.418329e-03 -1.418329e-03 1 -5.119 -4.1281)"> <stop offset="4.245924e-04" style="stop-color:#4DAED8"></stop> <stop offset="0.2511" style="stop-color:#4CACD5"></stop> <stop offset="0.4174" style="stop-color:#48A4CC"></stop> <stop offset="0.5593" style="stop-color:#4296BD"></stop> <stop offset="0.6874" style="stop-color:#3A83A8"></stop> <stop offset="0.8051" style="stop-color:#2F6B8D"></stop> <stop offset="0.8839" style="stop-color:#265676"></stop> </linearGradient> <path class="st0" d="M142.9,162c0,0-52.6-7.7-69.5-11.6c-17.1-4-66.2-20.1-66.2-20.1c-5-1.2-8.1-6-7-10.8c0,0,5.9-42.1,9.1-55.8 C12.7,49.2,26.5,6.9,26.5,6.9c1.1-4.8,6.1-7.8,11.1-6.6c0,0,51.1,8,68.2,12c16.9,4,67.6,19.7,67.6,19.7c5,1.2,8.1,6,7,10.8 c0,0-5.4,43.2-8.7,57.3S154,155.4,154,155.4C152.8,160.2,147.9,163.2,142.9,162z"></path> <path class="st1" d="M139.7,157.1c0,0-49.3-7.2-65.2-10.9c-16-3.7-62.2-18.9-62.2-18.9c-4.7-1.1-7.6-5.7-6.5-10.2 c0,0,5.6-39.5,8.5-52.4c3.2-13.6,16.2-53.4,16.2-53.4c1.1-4.5,5.7-7.3,10.4-6.2c0,0,48,7.5,64,11.3 c15.9,3.7,63.4,18.5,63.4,18.5c4.7,1.1,7.6,5.7,6.5,10.2c0,0-5.1,40.5-8.2,53.8s-16.5,51.9-16.5,51.9 C149,155.4,144.4,158.2,139.7,157.1z"></path> <linearGradient id="SVGID_2_" gradientUnits="userSpaceOnUse" x1="23.9953" y1="89.3101" x2="167.5018" y2="89.3101" gradientTransform="matrix(1 1.418329e-03 -1.418329e-03 1 -5.119 -4.1281)"> <stop offset="0" style="stop-color:#6B8B27"></stop> <stop offset="0.1474" style="stop-color:#6E8E2A"></stop> <stop offset="0.2756" style="stop-color:#799933"></stop> <stop offset="0.3963" style="stop-color:#8AAB42"></stop> <stop offset="0.4967" style="stop-color:#9EC054"></stop> </linearGradient> <path class="st2" d="M161.8,96.2C161.8,96.2,161.8,96.2,161.8,96.2c0.1-0.7,0.2-1.4,0.3-2l0-0.3c0-0.5,0.1-1.1,0.1-1.6 c0,0,0,0,0,0l0,0c0-1-0.7-2-1.7-2.2l-22.2-5.1L50.3,64.5l-1.7-0.4L46,63.5c8.2-12.5,29.3-18.3,51.7-13.1 c18.7,4.3,33.2,15.1,38.6,27.1c0.3,0.7,0.9,1.1,1.6,1.3c0,0,13.5,3.1,20.1,4.7c1.7,0.4,3.2-1.2,2.8-2.9c0-0.1,0-0.1,0-0.2 c0-0.1,0-0.1-0.1-0.2c-0.4-1.3-0.9-2.5-1.4-3.8c0,0,0-0.1,0-0.1c-0.3-0.6-0.5-1.2-0.8-1.8c0-0.1-0.1-0.1-0.1-0.2 c-0.6-1.2-1.3-2.5-2-3.7c0,0-0.1-0.1-0.1-0.1c-0.4-0.6-0.7-1.2-1.1-1.8c0-0.1-0.1-0.1-0.1-0.2c-0.8-1.2-1.6-2.4-2.5-3.5 c0-0.1-0.1-0.1-0.1-0.2c-0.4-0.6-0.9-1.1-1.4-1.7c0-0.1-0.1-0.1-0.1-0.2c-1-1.1-2-2.2-3.1-3.3c-0.1-0.1-0.1-0.1-0.2-0.2 c-0.5-0.5-1.1-1.1-1.6-1.6c-0.1-0.1-0.1-0.1-0.2-0.2c-0.6-0.5-1.1-1.1-1.7-1.6c0,0,0,0,0,0c-0.6-0.5-1.2-1-1.8-1.5 c-0.1-0.1-0.2-0.2-0.3-0.2c-0.6-0.5-1.2-1-1.8-1.5c-0.1-0.1-0.1-0.1-0.2-0.2c-0.6-0.5-1.2-0.9-1.9-1.4c0,0-0.1-0.1-0.1-0.1 c-0.6-0.5-1.3-0.9-2-1.4c-0.1-0.1-0.2-0.2-0.3-0.2c-0.7-0.4-1.3-0.9-2-1.3c-0.1,0-0.2-0.1-0.2-0.1c-0.7-0.4-1.3-0.8-2-1.2 c-0.1,0-0.2-0.1-0.2-0.1c-0.7-0.4-1.4-0.8-2.1-1.2c-0.1-0.1-0.3-0.2-0.4-0.2c-0.7-0.4-1.5-0.8-2.2-1.2c-0.1,0-0.2-0.1-0.2-0.1 c-0.7-0.4-1.4-0.7-2.2-1.1c-0.1-0.1-0.2-0.1-0.3-0.2c-0.8-0.4-1.5-0.7-2.3-1.1c-0.2-0.1-0.3-0.1-0.5-0.2c-0.8-0.3-1.6-0.7-2.4-1 c-0.1,0-0.1-0.1-0.2-0.1c-0.8-0.3-1.5-0.6-2.3-0.9c-0.1-0.1-0.3-0.1-0.4-0.2c-0.8-0.3-1.6-0.6-2.4-0.9c-0.2-0.1-0.3-0.1-0.5-0.2 c-0.8-0.3-1.7-0.6-2.5-0.9c0,0-0.1,0-0.1,0c-0.8-0.3-1.7-0.5-2.5-0.8c-0.2,0-0.3-0.1-0.5-0.1c-0.8-0.2-1.7-0.5-2.6-0.7 c-0.2,0-0.3-0.1-0.5-0.1c-0.9-0.2-1.8-0.5-2.7-0.7C92,33,83,32.1,74.5,32.3c-1.1,0-2.3,0.1-3.4,0.1c-1.7,0.1-3.3,0.2-5,0.4 C65,33,64,33.2,62.9,33.3c-1.6,0.2-3.2,0.5-4.7,0.9c-1,0.2-2,0.5-3,0.7c-0.5,0.1-1,0.3-1.5,0.4c-1,0.3-2,0.6-2.9,0.9 c-1,0.3-1.9,0.6-2.8,1c-0.9,0.3-1.8,0.7-2.7,1.1c-0.9,0.4-1.8,0.8-2.6,1.2c-0.9,0.4-1.7,0.8-2.5,1.3c-0.4,0.2-0.8,0.4-1.2,0.7 c-0.8,0.5-1.6,0.9-2.3,1.4c-0.4,0.2-0.8,0.5-1.1,0.7c-1.1,0.8-2.2,1.5-3.2,2.4c-0.7,0.5-1.3,1.1-2,1.7c-0.6,0.6-1.2,1.2-1.8,1.8 c-0.9,0.9-1.7,1.8-2.5,2.8c-0.5,0.6-1,1.3-1.5,2c-0.7,1-1.3,2.1-1.9,3.1c-1.3,2.5-2.4,5.2-3,8c-0.1,0.6-0.2,1.1-0.3,1.7 c0,0.1,0,0.2-0.1,0.4c-0.1,0.6-0.2,1.1-0.2,1.7l0,0.3c0,0.5-0.1,1.1-0.1,1.6c0,0,0,0,0,0l0,0c0,1,0.7,2,1.7,2.2l22.2,5.1 l88.1,20.4l1.7,0.4l2.6,0.6c-8.2,12.5-29.3,18.3-51.7,13.1c-18.7-4.3-33.2-15.1-38.6-27.1c-0.3-0.7-0.9-1.1-1.6-1.3 c-3.9-0.9-17-3.9-21.9-5.1c-0.9-0.2-1.7,0.6-1.5,1.5c0,0,0,0,0,0c0,0,0,0,0,0.1c0.2,0.6,0.3,1.3,0.5,1.9c0,0.1,0,0.1,0.1,0.2 c0.4,1.3,0.9,2.5,1.4,3.8c0,0,0,0.1,0,0.1c0.3,0.6,0.5,1.2,0.8,1.8c0,0.1,0.1,0.1,0.1,0.2c0.6,1.2,1.3,2.5,2,3.7 c0,0,0.1,0.1,0.1,0.1c0.4,0.6,0.7,1.2,1.1,1.8c0,0.1,0.1,0.1,0.1,0.2c0.8,1.2,1.6,2.4,2.5,3.5c0,0.1,0.1,0.1,0.1,0.2 c0.4,0.6,0.9,1.1,1.4,1.7c0,0.1,0.1,0.1,0.1,0.2c1,1.1,2,2.2,3.1,3.3c0.1,0.1,0.1,0.1,0.2,0.2c0.5,0.5,1.1,1.1,1.6,1.6 c0.1,0.1,0.1,0.1,0.2,0.2c0.6,0.5,1.1,1.1,1.7,1.6c0,0,0,0,0,0c0.6,0.5,1.2,1,1.8,1.5c0.1,0.1,0.2,0.2,0.3,0.2 c0.6,0.5,1.2,1,1.8,1.5c0.1,0.1,0.1,0.1,0.2,0.2c0.6,0.5,1.2,0.9,1.9,1.4c0,0,0.1,0.1,0.1,0.1c0.6,0.5,1.3,0.9,2,1.4 c0.1,0.1,0.2,0.2,0.3,0.2c0.7,0.4,1.3,0.9,2,1.3c0.1,0,0.2,0.1,0.2,0.1c0.7,0.4,1.3,0.8,2,1.2c0.1,0,0.2,0.1,0.2,0.1 c0.7,0.4,1.4,0.8,2.1,1.2c0.1,0.1,0.3,0.2,0.4,0.2c0.7,0.4,1.5,0.8,2.2,1.2c0.1,0,0.2,0.1,0.2,0.1c0.7,0.4,1.4,0.7,2.2,1.1 c0.1,0.1,0.2,0.1,0.3,0.2c0.8,0.4,1.5,0.7,2.3,1.1c0.2,0.1,0.3,0.1,0.5,0.2c0.8,0.3,1.6,0.7,2.4,1c0.1,0,0.1,0.1,0.2,0.1 c0.8,0.3,1.5,0.6,2.3,0.9c0.1,0.1,0.3,0.1,0.4,0.2c0.8,0.3,1.6,0.6,2.4,0.9c0.2,0.1,0.3,0.1,0.5,0.2c0.8,0.3,1.7,0.6,2.5,0.9 c0,0,0.1,0,0.1,0c0.8,0.3,1.7,0.5,2.5,0.8c0.2,0,0.3,0.1,0.5,0.1c0.8,0.2,1.7,0.5,2.6,0.7c0.2,0,0.3,0.1,0.5,0.1 c0.9,0.2,1.8,0.5,2.7,0.7c9.2,2.1,18.2,3,26.8,2.8c1.1,0,2.3-0.1,3.4-0.1c1.7-0.1,3.3-0.2,5-0.4c1.1-0.1,2.2-0.3,3.2-0.4 c1.6-0.2,3.2-0.5,4.7-0.9c1-0.2,2-0.5,3-0.7c0.5-0.1,1-0.3,1.5-0.4c1-0.3,2-0.6,2.9-0.9c1.9-0.6,3.8-1.3,5.5-2 c0.9-0.4,1.8-0.8,2.6-1.2c0.2-0.1,0.4-0.2,0.6-0.3l-2.7,9.8c-0.3,1.3,0.4,2.6,1.7,2.9l10,2.3c1.2,0.3,2.4-0.4,2.8-1.7 L161.8,96.2z"></path> </g> </g> <g id="XMLID_69_"> <path id="XMLID_90_" d="M26.1,171.6v-3.4h3v3.4H26.1z M26.1,196.9v-20.3h3v20.3H26.1z"></path> <path id="XMLID_87_" d="M52.4,176.6v20.1c0,3-0.6,5.1-1.8,6.2c-1.2,1.2-3.2,1.8-6.2,1.8h-1.4c-2.6,0-4.6-0.5-5.8-1.4 c-1.2-1-1.9-2.6-2.1-4.8h3.1c0.1,1.3,0.5,2.2,1.2,2.7c0.7,0.5,1.9,0.8,3.7,0.8h1.3c1.8,0,3-0.3,3.8-0.9c0.8-0.6,1.1-1.5,1.1-2.8 V194c-0.6,1.1-1.3,1.9-2.3,2.4c-1,0.5-2.3,0.7-4,0.7c-2.9,0-4.9-0.6-6.1-1.8c-1.2-1.2-1.8-3.3-1.8-6.2v-4.8c0-3,0.6-5,1.8-6.2 c1.2-1.2,3.2-1.8,6.1-1.8c1.7,0,3.1,0.3,4.2,0.8c1,0.6,1.8,1.4,2.3,2.6v-3.2H52.4z M49.4,188.4v-3.3c0-2.1-0.5-3.7-1.5-4.6 c-1-1-2.6-1.4-4.7-1.4c-2,0-3.3,0.4-3.9,1.1c-0.7,0.7-1,2.3-1,4.9v3.5c0,2.5,0.3,4.2,1,4.9c0.7,0.7,2,1.1,3.9,1.1 c2.2,0,3.7-0.5,4.7-1.4S49.4,190.6,49.4,188.4z"></path> <path id="XMLID_85_" d="M58.2,187.6v-2.7H69v2.7H58.2z"></path> <path id="XMLID_83_" d="M91.3,176.6v20.3h-2.9v-2.8c-0.5,1-1.3,1.8-2.4,2.3c-1.1,0.5-2.5,0.7-4.3,0.7c-2.6,0-4.5-0.5-5.6-1.6 c-1.1-1.1-1.6-3-1.6-5.6v-13.3h3v12.7c0,2.1,0.3,3.5,0.9,4.2c0.6,0.7,1.9,1,3.7,1c2.1,0,3.6-0.5,4.6-1.4c1-1,1.5-2.5,1.5-4.6 v-11.8H91.3z"></path> <path id="XMLID_81_" d="M97.6,196.9v-20.3h2.9v2.8c0.4-1.1,1.1-1.8,2-2.3c0.9-0.5,2.1-0.7,3.6-0.7c2.2,0,3.8,0.5,4.7,1.6 c0.9,1.1,1.3,3,1.3,5.7v0.2h-3v-0.6c0-1.6-0.3-2.7-0.8-3.3c-0.5-0.6-1.5-0.8-2.9-0.8c-1.7,0-2.9,0.5-3.6,1.4 c-0.7,0.9-1.1,2.5-1.1,4.6v11.8H97.6z"></path> <path id="XMLID_78_" d="M116.3,196.9v-28.7h3v11.3c0.6-1.1,1.4-1.9,2.3-2.4c1-0.5,2.3-0.7,4-0.7c2.9,0,4.9,0.6,6.1,1.8 c1.2,1.2,1.8,3.3,1.8,6.2v4.8c0,2.9-0.6,5-1.8,6.2c-1.2,1.2-3.2,1.8-6.1,1.8c-1.7,0-3.1-0.3-4.2-0.8c-1-0.5-1.8-1.4-2.3-2.6v3.1 H116.3z M119.2,185.1v3.3c0,2.1,0.5,3.6,1.5,4.6c1,1,2.6,1.4,4.7,1.4c2,0,3.3-0.4,3.9-1.1c0.6-0.7,1-2.3,1-4.9v-3.5 c0-2.6-0.3-4.2-1-4.9c-0.6-0.7-2-1.1-3.9-1.1c-2.2,0-3.7,0.5-4.7,1.4C119.7,181.5,119.2,183,119.2,185.1z"></path> <path id="XMLID_75_" d="M152.4,194.8c-0.5,0.8-1.2,1.5-2.2,1.8c-1,0.4-2.4,0.6-4.2,0.6c-3.2,0-5.3-0.5-6.4-1.4 c-1.1-0.9-1.6-2.6-1.6-5.1c0-1.4,0.1-2.5,0.4-3.4c0.3-0.8,0.7-1.5,1.2-1.9c0.5-0.4,1.2-0.7,2.1-0.9c0.9-0.2,2.3-0.3,4.1-0.3 c1.8,0,3.2,0.2,4.2,0.5c1,0.3,1.7,0.8,2.2,1.5v-3.5c0-1.7-0.3-2.7-1-3.2c-0.6-0.5-2.3-0.7-4.8-0.7c-1.9,0-3.1,0.2-3.7,0.6 c-0.6,0.4-0.9,1.1-1,2.2h-3v-0.5c0-1.7,0.6-3,1.7-3.7c1.1-0.7,3.1-1.1,5.8-1.1c2.1,0,3.8,0.1,4.9,0.3c1.1,0.2,1.9,0.5,2.5,0.9 c0.6,0.5,1,1,1.3,1.7c0.2,0.7,0.4,1.8,0.4,3.5v14.2h-2.7L152.4,194.8z M152.2,191.8v-2.1c0-1-0.5-1.7-1.5-2.1 c-1-0.4-2.5-0.7-4.7-0.7c-2,0-3.3,0.2-3.9,0.7c-0.7,0.5-1,1.4-1,2.8c0,1.6,0.3,2.7,1.1,3.2c0.7,0.5,2.1,0.8,4.2,0.8 c1.9,0,3.3-0.2,4.3-0.7C151.7,193.3,152.2,192.6,152.2,191.8z"></path> <path id="XMLID_73_" d="M161.4,196.9v-20.3h2.9v2.8c0.5-1,1.3-1.8,2.4-2.3c1.1-0.5,2.5-0.7,4.3-0.7c2.7,0,4.5,0.5,5.6,1.6 s1.6,3,1.6,5.7v13.3h-3v-12.7c0-2.1-0.3-3.5-0.9-4.2c-0.6-0.7-1.8-1-3.6-1c-2.1,0-3.7,0.5-4.7,1.5c-1,1-1.5,2.5-1.5,4.6v11.8 H161.4z"></path> <g id="XMLID_70_"> <path id="XMLID_71_" d="M2.3,190.8h3v0.5c0,1.2,0.4,2.1,1.2,2.6c0.8,0.5,2.1,0.7,4.4,0.7c2.6,0,4.2-0.2,4.8-0.7 c0.6-0.5,0.9-1.4,0.9-2.7c0-1.3,0-3,0-3.7c-0.8,0-13.7,0-14.4,0c0-0.7,0-3.9,0-5.3c0-2.2,0.6-3.8,1.7-4.6 c1.1-0.8,3.6-1.2,7.5-1.2c3,0,5.6,0.4,6.7,1.1c1.1,0.8,1.6,2.1,1.6,4h-3v-0.2c0-0.9-0.4-1.5-1.2-1.9c-0.8-0.3-2.9-0.5-5.2-0.5 c-2.2,0-3.6,0.2-4.3,0.6c-0.6,0.4-0.9,1.3-0.9,2.6c0,0.8,0,2.4,0,2.8c1.8,0,11.7,0,14.5,0c0,0.7,0,4.6,0,6.1 c0,1.5-0.2,2.6-0.6,3.4c-0.4,0.8-1,1.4-2,2c-0.4,0.3-1.1,0.5-2.1,0.6c-1,0.1-2.4,0.2-4.1,0.2c-3.6,0-5.7-0.4-6.9-1.2 c-1.2-0.8-1.7-2.3-1.7-4.5V190.8z"></path> </g> </g> <g id="XMLID_6_"> <path id="XMLID_67_" d="M0.9,222.8v-8.4h0.9v8.4H0.9z"></path> <path id="XMLID_65_" d="M3.9,222.8v-8.4h1.4l4.6,7.5v-7.5h0.9v8.4H9.4l-4.6-7.5v7.5H3.9z"></path> <path id="XMLID_63_" d="M12.9,222.8v-8.4h1.5l2.9,7.5l2.9-7.5h1.5v8.4h-0.9v-7.6l-2.9,7.6h-1.2l-2.9-7.6v7.6H12.9z"></path> <path id="XMLID_60_" d="M23.5,217.2c0-1.1,0.2-1.8,0.7-2.3c0.4-0.4,1.2-0.6,2.4-0.6h1.1c1.1,0,1.9,0.2,2.4,0.6 c0.4,0.4,0.7,1.2,0.7,2.3v2.9c0,1.1-0.2,1.8-0.7,2.3c-0.4,0.4-1.2,0.6-2.4,0.6h-1.1c-1.1,0-1.9-0.2-2.4-0.6 c-0.4-0.4-0.7-1.2-0.7-2.3V217.2z M27.3,215.2h-0.5c-0.6,0-1,0-1.3,0.1c-0.2,0.1-0.5,0.2-0.6,0.3c-0.2,0.1-0.3,0.3-0.4,0.6 c-0.1,0.2-0.1,0.7-0.1,1.3v2.4c0,0.6,0,1,0.1,1.2c0.1,0.2,0.2,0.4,0.4,0.6c0.2,0.2,0.4,0.3,0.6,0.3c0.2,0.1,0.7,0.1,1.3,0.1h0.5 c0.6,0,1,0,1.3-0.1c0.2-0.1,0.5-0.2,0.6-0.3c0.2-0.1,0.3-0.3,0.3-0.6c0.1-0.2,0.1-0.7,0.1-1.3v-2.4c0-0.6,0-1-0.1-1.3 c-0.1-0.2-0.2-0.4-0.4-0.6c-0.2-0.1-0.4-0.3-0.6-0.3C28.3,215.2,27.9,215.2,27.3,215.2z"></path> <path id="XMLID_56_" d="M32.4,222.8v-8.4h3.9c0.9,0,1.5,0.1,1.8,0.4c0.3,0.3,0.4,0.8,0.4,1.7c0,0.7-0.1,1.1-0.2,1.4 c-0.1,0.3-0.4,0.4-0.8,0.5c0.4,0.1,0.8,0.3,0.9,0.6c0.2,0.3,0.3,0.8,0.3,1.5c0,0.9-0.2,1.6-0.5,1.9c-0.4,0.3-1.1,0.5-2.2,0.5 H32.4z M33.3,218h3c0.5,0,0.8-0.1,1-0.3s0.3-0.6,0.3-1.2c0-0.6-0.1-0.9-0.3-1.1c-0.2-0.1-0.6-0.2-1.4-0.2h-2.6V218z M33.3,221.9 h3.1c0.6,0,0.9-0.1,1.1-0.3c0.2-0.2,0.3-0.6,0.3-1.3c0-0.6-0.1-1-0.3-1.2c-0.2-0.2-0.8-0.3-1.7-0.3h-2.5V221.9z"></path> <path id="XMLID_54_" d="M40.5,222.8v-8.4h0.9v8.4H40.5z"></path> <path id="XMLID_52_" d="M43.5,222.8v-8.4h0.9v7.6h4.8v0.9H43.5z"></path> <path id="XMLID_50_" d="M50.4,222.8v-8.4h0.9v8.4H50.4z"></path> <path id="XMLID_47_" d="M52.5,222.8l3.1-8.4h1.5l3.1,8.4h-1l-0.8-2.2h-4.3l-0.8,2.2H52.5z M54.6,219.8h3.7l-1.7-4.5h-0.3 L54.6,219.8z"></path> <path id="XMLID_44_" d="M61.4,222.8v-8.4h3.8c0.9,0,1.6,0.1,2,0.4c0.4,0.3,0.5,0.8,0.5,1.5v1.3c0,0.4-0.1,0.8-0.3,1 c-0.2,0.3-0.5,0.4-0.8,0.5c0.4,0.1,0.7,0.3,0.8,0.5c0.2,0.2,0.2,0.6,0.2,1.2v2h-1v-1.7c0-0.6-0.1-1-0.3-1.2s-0.6-0.3-1.1-0.3h-3 v3.3H61.4z M65.1,215.3h-2.7v3.4h2.7c0.7,0,1.2-0.1,1.4-0.3c0.2-0.2,0.3-0.5,0.3-0.9v-1c0-0.5-0.1-0.8-0.3-0.9 C66.2,215.4,65.8,215.3,65.1,215.3z"></path> <path id="XMLID_42_" d="M69.5,222.8v-8.4h0.9v8.4H69.5z"></path> <path id="XMLID_39_" d="M71.6,222.8l3.1-8.4h1.5l3.1,8.4h-1l-0.8-2.2h-4.3l-0.8,2.2H71.6z M73.7,219.8h3.7l-1.7-4.5h-0.3 L73.7,219.8z"></path> <path id="XMLID_37_" d="M88.7,222.8h-0.9v-3.7l-3.5-4.7h1.1l2.8,3.9l2.8-3.9h1.1l-3.5,4.7V222.8z"></path> <path id="XMLID_35_" d="M97.9,222.8v-8.4h0.9v7.6h4.8v0.9H97.9z"></path> <path id="XMLID_32_" d="M104.6,217.2c0-1.1,0.2-1.8,0.7-2.3c0.4-0.4,1.2-0.6,2.4-0.6h1.1c1.1,0,1.9,0.2,2.4,0.6 c0.4,0.4,0.7,1.2,0.7,2.3v2.9c0,1.1-0.2,1.8-0.7,2.3c-0.4,0.4-1.2,0.6-2.4,0.6h-1.1c-1.1,0-1.9-0.2-2.4-0.6 c-0.4-0.4-0.7-1.2-0.7-2.3V217.2z M108.4,215.2h-0.5c-0.6,0-1,0-1.3,0.1s-0.5,0.2-0.6,0.3c-0.2,0.1-0.3,0.3-0.4,0.6 c-0.1,0.2-0.1,0.7-0.1,1.3v2.4c0,0.6,0,1,0.1,1.2c0.1,0.2,0.2,0.4,0.4,0.6c0.2,0.2,0.4,0.3,0.6,0.3s0.7,0.1,1.3,0.1h0.5 c0.6,0,1,0,1.3-0.1s0.5-0.2,0.6-0.3c0.2-0.1,0.3-0.3,0.3-0.6c0.1-0.2,0.1-0.7,0.1-1.3v-2.4c0-0.6,0-1-0.1-1.3 c-0.1-0.2-0.2-0.4-0.4-0.6c-0.2-0.1-0.4-0.3-0.6-0.3C109.5,215.2,109,215.2,108.4,215.2z"></path> <path id="XMLID_30_" d="M112.4,215.3v-0.9h6.3v0.9H116v7.5H115v-7.5H112.4z"></path> <path id="XMLID_28_" d="M119.6,222.8v-8.4h0.9v8.4H119.6z"></path> <path id="XMLID_26_" d="M122.6,222.8v-8.4h5.3v0.9h-4.3v2.8h4.2v0.9h-4.2v3.9H122.6z"></path> <path id="XMLID_24_" d="M129.4,222.8v-8.4h0.9v8.4H129.4z"></path> <path id="XMLID_22_" d="M132.1,217.2c0-1.1,0.2-1.8,0.6-2.3c0.4-0.4,1.1-0.6,2.2-0.6h1c1,0,1.8,0.2,2.2,0.5 c0.4,0.4,0.6,1,0.6,1.9v0.4h-1v-0.2c0-0.6-0.1-1.1-0.4-1.3s-0.8-0.4-1.5-0.4h-0.7c-0.5,0-0.9,0-1.1,0.1c-0.2,0.1-0.4,0.2-0.6,0.3 c-0.2,0.1-0.3,0.3-0.3,0.6c-0.1,0.2-0.1,0.7-0.1,1.3v2.4c0,0.6,0,1,0.1,1.3c0.1,0.2,0.2,0.4,0.3,0.6c0.2,0.1,0.3,0.3,0.6,0.3 c0.2,0.1,0.6,0.1,1.1,0.1h0.7c0.8,0,1.3-0.1,1.6-0.4c0.3-0.2,0.4-0.7,0.4-1.4c0-0.1,0-0.2,0-0.2c0-0.1,0-0.1,0-0.2h1v0.6 c0,0.9-0.2,1.6-0.6,2c-0.4,0.4-1.1,0.5-2.2,0.5h-1c-1,0-1.8-0.2-2.2-0.6c-0.4-0.4-0.6-1.2-0.6-2.3V217.2z"></path> <path id="XMLID_19_" d="M139.2,222.8l3.1-8.4h1.5l3.1,8.4h-1l-0.8-2.2H141l-0.8,2.2H139.2z M141.3,219.8h3.7l-1.7-4.5H143 L141.3,219.8z"></path> <path id="XMLID_16_" d="M148.2,222.8v-8.4h4.1c1.1,0,1.8,0.2,2.2,0.6c0.4,0.4,0.6,1.2,0.6,2.2v2.8c0,1-0.2,1.8-0.6,2.2 s-1.2,0.6-2.2,0.6H148.2z M149.1,222h3c0.8,0,1.4-0.1,1.6-0.4s0.4-0.8,0.4-1.6v-2.7c0-0.8-0.1-1.4-0.4-1.6 c-0.3-0.3-0.8-0.4-1.6-0.4h-3V222z"></path> <path id="XMLID_13_" d="M156.6,217.2c0-1.1,0.2-1.8,0.7-2.3c0.4-0.4,1.2-0.6,2.4-0.6h1.1c1.1,0,1.9,0.2,2.4,0.6 c0.4,0.4,0.7,1.2,0.7,2.3v2.9c0,1.1-0.2,1.8-0.7,2.3c-0.4,0.4-1.2,0.6-2.4,0.6h-1.1c-1.1,0-1.9-0.2-2.4-0.6s-0.7-1.2-0.7-2.3 V217.2z M160.4,215.2h-0.5c-0.6,0-1,0-1.3,0.1s-0.5,0.2-0.6,0.3c-0.2,0.1-0.3,0.3-0.4,0.6c-0.1,0.2-0.1,0.7-0.1,1.3v2.4 c0,0.6,0,1,0.1,1.2c0.1,0.2,0.2,0.4,0.4,0.6c0.2,0.2,0.4,0.3,0.6,0.3s0.7,0.1,1.3,0.1h0.5c0.6,0,1,0,1.3-0.1s0.5-0.2,0.6-0.3 c0.2-0.1,0.3-0.3,0.3-0.6s0.1-0.7,0.1-1.3v-2.4c0-0.6,0-1-0.1-1.3c-0.1-0.2-0.2-0.4-0.4-0.6c-0.2-0.1-0.4-0.3-0.6-0.3 C161.4,215.2,161,215.2,160.4,215.2z"></path> <path id="XMLID_10_" d="M165.5,222.8v-8.4h3.8c0.9,0,1.6,0.1,2,0.4c0.4,0.3,0.5,0.8,0.5,1.5v1.3c0,0.4-0.1,0.8-0.3,1 c-0.2,0.3-0.5,0.4-0.8,0.5c0.4,0.1,0.7,0.3,0.8,0.5c0.2,0.2,0.2,0.6,0.2,1.2v2h-1v-1.7c0-0.6-0.1-1-0.3-1.2 c-0.2-0.2-0.6-0.3-1.1-0.3h-3v3.3H165.5z M169.1,215.3h-2.7v3.4h2.7c0.7,0,1.2-0.1,1.4-0.3c0.2-0.2,0.3-0.5,0.3-0.9v-1 c0-0.5-0.1-0.8-0.3-0.9C170.3,215.4,169.8,215.3,169.1,215.3z"></path> <path id="XMLID_7_" d="M172.7,222.8l3.1-8.4h1.5l3.1,8.4h-1l-0.8-2.2h-4.3l-0.8,2.2H172.7z M174.8,219.8h3.7l-1.7-4.5h-0.3 L174.8,219.8z"></path> </g> <path id="XMLID_4_" class="st3" d="M173.3,32c0,0-50.6-15.8-67.6-19.7c-17.1-4-68.2-12-68.2-12c-5-1.2-9.9,1.8-11.1,6.6 c0,0-13.8,42.3-17.2,56.8c0,0.1,0,0.2-0.1,0.3c12.2,8.4,38.5,19.9,84.3,11.3c32.5-6.1,66.5,9.8,79.5,16.9 c3.2-18,7.1-49.4,7.1-49.4C181.4,38,178.3,33.1,173.3,32z"></path> <radialGradient id="XMLID_95_" cx="122.4418" cy="0.153" r="66.7076" fx="108.9998" fy="-25.7524" gradientTransform="matrix(0.3946 -0.9188 1.2129 0.5209 73.9386 112.5784)" gradientUnits="userSpaceOnUse"> <stop offset="0.3838" style="stop-color:#FFFFFF;stop-opacity:0.4"></stop> <stop offset="0.9987" style="stop-color:#FFFFFF;stop-opacity:0.1"></stop> </radialGradient> <path id="XMLID_3_" class="st4" d="M154.3,50.1c2.9-13.4-17.8-29.3-46.3-35.5s-54-0.4-56.9,13C48.2,41,68.9,56.9,97.4,63.1 S151.4,63.5,154.3,50.1z"></path> </g> </g> </svg> 